<?xml version="1.0" encoding="UTF-8"?>
<svg class="signature" width="704px" height="130px" viewBox="0 0 704 130" version="1.1" xmlns="http://www.w3.org/2000/svg" xmlns:xlink="http://www.w3.org/1999/xlink">
    <title>Signature</title>
    <style>
        path {
            fill: #000000;
        }

        @media (prefers-color-scheme: dark) {
            path {
                fill: #FFFFFF;
            }   
        }
    </style>
    <g id="Page-1" stroke="none" stroke-width="1" fill="none" fill-rule="evenodd">
        <path d="M0.260399123,129.329579 C-0.283660877,128.674079 0.0498191232,127.884079 1.02754912,127.512379 C1.83208912,127.206479 18.5112291,123.835879 26.6505191,122.334379 C29.1311891,121.876779 36.7235391,120.153379 43.5224091,118.504679 C56.0572991,115.464879 70.7566791,111.993879 75.5577091,110.939979 L78.1924891,110.361579 L74.2213291,109.227779 C68.4748591,107.587079 63.1283891,105.792479 61.3762891,104.916079 C59.1686991,103.811879 56.8862991,101.806879 56.8862991,100.971879 C56.8862991,99.8519786 57.9265591,99.9424786 59.4734291,101.196879 C60.2555491,101.831079 61.4968191,102.648079 62.2318391,103.012279 C64.7398191,104.255179 74.9695991,107.333679 80.8347091,108.610679 L83.4009091,109.169379 L94.5326091,106.765679 C100.655109,105.443779 111.011109,103.273779 117.546009,101.943579 L129.427509,99.5249786 L133.847609,97.3136786 C142.376709,93.0467786 147.507209,89.6318786 154.640509,83.4734786 C163.011309,76.2466786 166.245009,71.5468786 165.196709,68.1310786 C164.734909,66.6265786 162.319909,64.4571786 159.394309,62.9189786 C156.054609,61.1629786 154.366709,59.8331786 153.257209,58.0835786 C151.533709,55.3659786 152.071309,52.1902786 154.663909,49.7728786 C157.386809,47.2338786 164.475309,43.0534786 177.024409,36.5857786 C196.525309,26.5350786 201.875309,22.4994786 199.618609,19.5423786 C196.320309,15.2202786 173.578009,17.6640786 153.007309,24.5509786 C144.501909,27.3986786 129.967609,33.7205786 122.495509,37.8227786 C120.359809,38.9951786 118.461409,39.9544786 118.276609,39.9544786 C118.091909,39.9544786 117.739309,39.7116786 117.493109,39.4149786 C116.899909,38.7002786 117.564809,38.1683786 122.075709,35.7487786 C132.493709,30.1605786 151.660109,22.8468786 164.465509,19.5731786 C180.995809,15.3471786 195.217509,14.3462786 199.475209,17.1092786 C200.942109,18.0611786 202.054509,19.7124786 202.036109,20.9108786 C202.011709,22.5133786 200.153709,25.0814786 197.535609,27.1315786 C193.289209,30.4568786 188.363809,33.3865786 176.827109,39.4492786 C163.341509,46.5361786 156.769209,50.7447786 155.581309,53.0544786 C154.049909,56.0318786 155.032109,57.4237786 161.628509,61.6248786 C166.240409,64.5619786 167.945909,67.3453786 167.279809,70.8480786 C166.819709,73.2673786 165.226109,75.6796786 161.498709,79.5990786 C155.032109,86.3989786 146.706409,92.8347786 139.318809,96.7444786 C138.167009,97.3539786 137.266809,97.8947786 137.318309,97.9462786 C137.369809,97.9977786 138.537609,97.8219786 139.913509,97.5554786 C186.943209,88.4489786 254.509109,78.7837786 304.285109,74.0423786 C339.719709,70.6670786 403.864709,66.3571786 418.777109,66.3496786 C420.466009,66.3487786 421.919709,66.2316786 422.007609,66.0893786 C422.095609,65.9471786 417.331009,65.1031786 411.419809,64.2139786 C386.043709,60.3968786 372.306209,57.8661786 364.263309,55.5270786 L360.482009,54.4272786 L360.058009,56.4254786 C359.351709,59.7535786 356.600609,62.4701786 355.153009,61.2687786 C353.300909,59.7316786 353.744209,56.4631786 356.173209,53.7457786 C356.720209,53.1337786 356.762109,52.9142786 356.412309,52.4928786 C355.876509,51.8472786 355.067809,51.8294786 355.067809,52.4633786 C355.067809,53.1299786 354.416809,53.4691786 353.978609,53.0310786 C353.717709,52.7700786 353.724209,52.4306786 354.001509,51.8218786 C354.321909,51.1186786 354.275409,50.7919786 353.726509,49.8916786 C352.413109,47.7376786 353.131109,45.3137786 355.558809,43.7056786 C359.082309,41.3717786 369.444209,38.7730786 383.221709,36.7678786 C386.608909,36.2748786 389.154209,35.7361786 389.659009,35.4054786 C390.288009,34.9932786 390.896909,34.9118786 392.129409,35.0754786 C393.112009,35.2057786 396.877909,34.9595786 401.561809,34.4587786 C412.387709,33.3011786 427.500209,32.0280786 435.251109,31.6207786 C443.801109,31.1713786 463.365409,30.9930786 470.351009,31.3007786 C480.949809,31.7676786 487.396209,33.4513786 489.092409,36.1959786 C489.697309,37.1747786 489.729009,37.4354786 489.357909,38.3803786 C488.641409,40.2043786 486.719409,41.8917786 481.832409,44.9872786 C478.950009,46.8129786 476.945609,48.3128786 476.653909,48.8625786 C476.078409,49.9468786 473.503409,51.6478786 472.437509,51.6478786 C471.844309,51.6478786 471.667609,51.4609786 471.667609,50.8333786 C471.667609,50.2507786 472.095609,49.7115786 473.171109,48.9391786 C473.998009,48.3453786 474.674509,47.7927786 474.674509,47.7111786 C474.674509,47.3742786 471.082309,48.1266786 464.150509,49.9156786 C457.259609,51.6939786 456.556209,51.8125786 452.893209,51.8136786 L448.986209,51.8148786 L447.785309,50.6509786 C446.502809,49.4079786 446.323509,48.2331786 447.385209,48.0307786 C447.765709,47.9581786 448.407209,48.3941786 449.100809,49.1966786 L450.208609,50.4784786 L453.170309,50.5856786 C455.881109,50.6837786 456.819709,50.5193786 464.245309,48.6454786 C471.406309,46.8381786 473.422309,46.5045786 476.010909,46.6981786 C476.628109,46.7442786 484.004409,42.3165786 485.950709,40.7315786 C487.671909,39.3298786 488.161609,38.4864786 487.887909,37.3955786 C487.609609,36.2867786 486.194409,35.7395786 481.602209,34.9649786 C476.463409,34.0982786 473.770409,33.9341786 461.978809,33.7693786 C442.769809,33.5007786 424.205809,34.4741786 400.524509,36.9916786 C394.176009,37.6665786 394.008609,37.7040786 393.123909,38.6512786 C392.075109,39.7739786 390.927009,39.8948786 389.775509,39.0038786 C388.996109,38.4008786 388.831809,38.4109786 382.296709,39.4605786 C368.718409,41.6413786 358.699909,44.3812786 356.762309,46.4437786 C355.735209,47.5369786 356.076309,48.5491786 357.565809,48.8285786 C358.184009,48.9445786 359.063609,49.4589786 359.520509,49.9717786 C360.566109,51.1452786 364.713909,52.5397786 372.775009,54.4277786 C373.583109,54.6170786 373.610509,54.5669786 373.619909,52.8850786 C373.626609,51.6997786 373.932709,50.4838786 374.582109,49.0634786 C375.762809,46.4811786 376.278709,45.9877786 377.021609,46.7306786 C377.516309,47.2253786 377.488009,47.4284786 376.670709,49.2494786 C376.181809,50.3388786 375.781809,51.3453786 375.781809,51.4860786 C375.781809,51.6267786 376.393309,51.0472786 377.140609,50.1981786 C379.171409,47.8910786 380.264609,47.2087786 381.496509,47.4793786 C383.039809,47.8182786 384.085409,50.6455786 382.667509,50.6455786 C382.433809,50.6455786 382.041409,50.2696786 381.795609,49.8102786 C381.549709,49.3508786 381.168709,48.9750786 380.948909,48.9750786 C380.271709,48.9750786 378.864309,50.2639786 377.248609,52.3637786 C376.399109,53.4676786 375.398309,54.4840786 375.024509,54.6222786 C373.520709,55.1785786 385.978409,57.2692786 415.873409,61.4775786 C447.250609,65.8945786 443.551209,65.5562786 457.802609,65.3118786 C474.562809,65.0244786 527.948209,65.2539786 540.324609,65.6665786 C572.314109,66.7330786 607.884609,68.8947786 647.903809,72.2042786 C668.433009,73.9020786 674.938809,74.6016786 699.354709,77.7367786 C702.483309,78.1384786 703.904609,78.7931786 702.673709,79.2655786 C701.827409,79.5902786 690.175909,78.8101786 656.924409,76.2023786 C595.125509,71.3557786 564.723509,69.5405786 531.638009,68.7215786 C521.019309,68.4587786 466.031109,68.3130786 466.990309,68.5502786 C467.265909,68.6183786 474.858309,69.5837786 483.862209,70.6955786 C512.681209,74.2538786 533.908509,77.3982786 548.342909,80.2471786 C562.626409,83.0662786 578.680409,87.3104786 589.970109,91.2520786 C597.136609,93.7542786 599.244209,94.8535786 600.809709,96.9060786 C601.622809,97.9720786 601.671509,98.1861786 601.303409,99.0747786 C600.996609,99.8154786 600.505309,100.190279 599.328809,100.581079 C596.012809,101.682479 578.718009,102.109079 565.548909,101.414379 C561.965709,101.225379 550.614709,100.403279 540.324609,99.5875786 C509.824209,97.1697786 494.804009,96.2916786 468.326709,95.3782786 C453.555309,94.8686786 415.794009,94.8587786 404.013009,95.3613786 C352.265509,97.5689786 310.295109,102.849379 265.696909,112.763279 C261.603709,113.673079 260.161309,113.679279 261.057709,112.782879 C261.457709,112.382779 279.791709,108.225579 291.920909,105.784479 C340.525609,96.0026786 396.772509,91.4893786 455.187009,92.6839786 C485.516509,93.3041786 502.181309,94.3184786 538.320009,97.7437786 C560.562809,99.8520786 570.228509,100.426679 583.256009,100.415479 C594.097209,100.406179 599.626809,99.7976786 599.626809,98.6140786 C599.626809,96.9694786 594.130209,94.6738786 582.026209,91.2634786 C559.167909,84.8227786 536.847609,80.7330786 499.063609,76.0622786 C467.200009,72.1234786 460.124909,71.2218786 452.828909,70.1706786 C443.788209,68.8681786 440.730409,68.7795786 424.692709,69.3556786 C389.703909,70.6125786 344.023509,73.5993786 304.452109,77.2175786 C250.007109,82.1957786 191.863809,90.2656786 138.071809,100.309979 C128.764909,102.047779 127.702909,102.319279 123.204509,104.110979 C117.607409,106.340279 117.089609,106.474379 116.936909,105.734979 C116.865509,105.389579 117.210309,105.037979 117.901009,104.751879 C118.492409,104.506879 118.826509,104.256479 118.643509,104.195479 C118.460409,104.134479 112.759109,105.221579 105.973809,106.611279 C99.1885091,108.000979 92.8101091,109.303779 91.7994091,109.506379 C89.2712091,110.013379 89.0934091,110.326979 91.1896091,110.582279 C92.4952091,110.741279 95.1920091,110.444479 101.321209,109.467479 C105.915009,108.735279 113.657709,107.536379 118.527209,106.803379 C123.396609,106.070379 131.489209,104.780779 136.510809,103.937679 C156.943109,100.507179 169.322109,100.042279 173.077809,102.564479 C175.472009,104.172379 174.301509,105.935479 170.065009,107.102779 C164.934409,108.516279 143.210109,112.444679 135.733209,113.310879 C126.609509,114.367779 104.492009,114.451979 95.4258091,113.464179 L91.6324091,113.050879 L77.6002991,115.441679 C69.8826591,116.756679 57.7799991,118.883079 50.7054991,120.167179 C43.6309891,121.451179 34.9110691,123.030979 31.3278791,123.677779 C27.7446791,124.324579 21.2798991,125.736479 16.9616991,126.815379 C4.81601912,129.849979 1.15024912,130.401879 0.260399123,129.329579 M64.2921091,115.571779 C64.1696091,115.449179 63.9691491,115.449179 63.8466491,115.571779 C63.7241391,115.694179 63.8243591,115.794479 64.0693749,115.794479 C64.3143791,115.794479 64.4146091,115.694179 64.2921091,115.571779 M65.9834691,115.258479 C65.8724591,115.147479 65.5842891,115.135579 65.3431291,115.232179 C65.0765991,115.338779 65.1557591,115.417979 65.5449691,115.433979 C65.8971691,115.448479 66.0944891,115.369579 65.9834691,115.258479 M77.2661991,113.418979 C85.1178091,112.117879 85.8121091,111.951379 84.4899091,111.687179 C83.2694091,111.443379 81.6921091,111.682379 74.9681391,113.130479 C70.5357191,114.084979 66.8340191,114.946179 66.7421491,115.044079 C66.6502791,115.142079 67.0261391,115.140379 67.5773891,115.040279 C68.1286491,114.940279 72.4886191,114.210579 77.2661991,113.418979 M127.380709,111.613879 C137.971009,111.099879 158.694309,107.739979 169.964709,104.709679 L171.454809,104.309079 L170.465909,104.036879 C167.159709,103.127079 158.115809,103.417079 147.092409,104.786479 C139.888309,105.681379 104.533109,110.921379 101.655309,111.520579 C101.471509,111.558879 103.501209,111.671679 106.165609,111.771279 C111.646009,111.976079 121.410509,111.903679 127.380709,111.613879 M119.752209,103.878279 C119.629709,103.755879 119.429209,103.755879 119.306709,103.878279 C119.184209,104.000879 119.284509,104.101079 119.529509,104.101079 C119.774509,104.101079 119.874709,104.000879 119.752209,103.878279 M357.948209,57.6607786 C358.359309,56.8343786 358.800209,55.6387786 358.927909,55.0039786 C359.159709,53.8516786 359.158809,53.8506786 358.366809,54.3699786 C357.135509,55.1774786 356.070109,56.9711786 356.070109,58.2366786 C356.070109,59.8609786 356.994609,59.5774786 357.948209,57.6607786 M170.304509,89.2243786 C169.982709,88.8367786 169.924709,87.3701786 170.063409,83.1271786 C170.311809,75.5309786 171.092009,72.5468786 172.521409,73.7269786 C172.940209,74.0726786 173.129409,74.0931786 173.227009,73.8033786 C173.300309,73.5856786 173.791809,72.8118786 174.319109,72.0838786 C176.234809,69.4393786 178.908009,68.1128786 181.529509,68.5060786 C182.665609,68.6763786 183.007909,68.8708786 183.007909,69.3460786 C183.007909,69.8163786 182.667809,70.0170786 181.588009,70.1841786 C178.267709,70.6980786 176.564909,71.9467786 174.999209,75.0156786 C174.056409,76.8636786 172.423809,83.3491786 172.134909,86.3938786 C171.836409,89.5389786 171.279809,90.3996786 170.304509,89.2243786 M147.757709,83.0480786 C147.642509,82.8616786 147.699509,81.9220786 147.884509,80.9600786 C148.069509,79.9979786 148.312609,76.5798786 148.424709,73.3640786 C148.676809,66.1356786 149.106109,60.4852786 149.951609,53.2643786 C150.310109,50.2028786 150.901309,44.6401786 151.265309,40.9028786 C152.363909,29.6260786 152.761209,28.3078786 155.252109,27.6755786 C156.354609,27.3956786 156.729109,27.4213786 157.110509,27.8026786 C157.783309,28.4755786 157.371309,29.2622786 156.226109,29.4912786 C155.691509,29.5982786 155.115509,29.9447786 154.946009,30.2613786 C154.490409,31.1126786 154.042409,34.2842786 153.271309,42.1172786 C152.891909,45.9712786 152.442409,50.1057786 152.272609,51.3049786 C151.700409,55.3444786 150.954809,63.7994786 150.607109,70.1902786 C150.417209,73.6815786 150.095509,77.5904786 149.892209,78.8766786 C149.327909,82.4471786 148.448509,84.1657786 147.757709,83.0480786 M190.939509,81.9071786 C189.220809,81.2939786 188.752909,80.8427786 188.313209,79.3752786 C188.001509,78.3350786 188.038009,77.8479786 188.522309,76.5798786 C189.291209,74.5664786 189.873509,74.0727786 190.610109,74.8094786 C191.177209,75.3764786 191.167709,75.4425786 190.117909,78.2662786 C189.823009,79.0593786 191.300209,80.0461786 192.780209,80.0448786 C195.353809,80.0425786 196.792409,78.6909786 200.868609,72.4453786 C202.970009,69.2256786 203.719609,68.5404786 204.232709,69.3705786 C204.568809,69.9145786 201.258909,76.3357786 199.635709,78.2889786 C196.615609,81.9227786 194.015209,83.0047786 190.939509,81.9071786 M96.5220091,72.9465786 C95.4278091,66.5548786 95.3078091,64.1996786 95.3267091,49.4761786 C95.3459091,34.5066786 95.9708091,21.3860786 96.7986091,18.5722786 C97.0219091,17.8132786 97.5622091,17.1321786 98.3384091,16.6315786 C99.7440091,15.7248786 100.611909,15.7861786 100.757209,16.8023786 C100.832609,17.3295786 100.585909,17.6738786 99.8663091,18.0459786 C98.2984091,18.8567786 98.1599091,19.6666786 97.0899091,34.2747786 C96.5366091,41.8295786 96.5387091,63.8716786 97.0932091,68.1856786 C97.9440091,74.8053786 97.9541091,75.0346786 97.3931091,75.0346786 C97.0239091,75.0346786 96.7789091,74.4473786 96.5220091,72.9465786 M213.995409,71.6668786 C213.244309,71.2294786 213.259209,70.5839786 214.081609,67.9214786 C214.786209,65.6402786 215.403109,65.0472786 216.220809,65.8649786 C216.652409,66.2965786 216.609609,66.5867786 215.865709,68.2729786 L215.019909,70.1902786 L215.923909,69.3549786 C216.421009,68.8955786 217.729509,67.4210786 218.831609,66.0781786 C221.291709,63.0805786 223.095809,61.8365786 224.367709,62.2604786 C225.376009,62.5966786 225.692409,63.4262786 225.735309,65.8469786 C225.783409,68.5572786 225.439009,70.0231786 224.754109,70.0231786 C223.940309,70.0231786 223.865509,69.6355786 224.155409,66.9215786 C224.307309,65.4999786 224.275309,64.3335786 224.074009,63.9574786 C223.768709,63.3870786 223.664809,63.3772786 222.777609,63.8360786 C222.247209,64.1103786 220.875209,65.5018786 219.728809,66.9283786 C217.083809,70.2197786 215.376209,72.0305786 214.929909,72.0176481 C214.737409,72.0120786 214.316909,71.8541786 213.995409,71.6668786 M238.314409,67.7714786 C237.260409,66.6346786 237.184009,64.7218786 238.106809,62.5690786 C238.848409,60.8391786 239.465609,59.9995786 241.279909,58.2529786 C242.419909,57.1554786 242.793209,56.9933786 244.180509,56.9933786 C245.556509,56.9933786 245.866409,57.1250786 246.463609,57.9637786 C247.895409,59.9744786 246.919409,64.4913786 244.567409,66.7398786 C242.926909,68.3080786 242.137309,68.6867786 240.508009,68.6867786 C239.471409,68.6867786 238.968709,68.4769786 238.314409,67.7714786 M242.146309,65.6775786 C243.341509,64.8265786 244.481709,62.4925786 244.481709,60.8970786 C244.481709,59.2518786 243.607809,59.2500786 241.791009,60.8914786 C239.991609,62.5170786 238.873709,65.3060786 239.693009,66.1253786 C240.114009,66.5463786 241.206109,66.3470786 242.146309,65.6775786 M296.767909,67.2850786 C294.762109,66.7284786 293.034509,65.5047786 292.047909,63.9418786 C291.212309,62.6182786 291.175309,62.3804786 291.358609,59.5176786 C291.677809,54.5345786 294.053509,47.6576786 298.546109,38.7128786 C302.363409,31.1125786 306.469209,24.6812786 313.288709,15.6199786 C319.842709,6.91147857 323.102109,3.81087857 328.546609,1.10537857 C331.349809,-0.287621428 332.349209,-0.354521428 332.349209,0.850878572 C332.349209,1.35807857 331.705509,1.84957857 329.760009,2.82787857 C326.134309,4.65107857 323.328009,6.85937857 320.441809,10.1607786 C315.686409,15.6000786 308.399909,25.8018786 304.324209,32.7267786 C297.876509,43.6818786 292.843109,57.6415786 293.911009,61.6071786 C294.115009,62.3650786 294.669309,63.2788786 295.158109,63.6633786 C297.651809,65.6248786 303.439309,65.8774786 306.590609,64.1622786 C308.592209,63.0728786 312.595709,59.0454786 313.560809,57.1503786 C315.267609,53.7992786 315.844809,48.7405786 314.612109,47.9390786 C312.735809,46.7192786 309.601909,47.6238786 307.125809,50.0999786 C305.268009,51.9576786 304.882209,52.9828786 305.186709,55.2527786 C305.342209,56.4122786 305.278709,56.6592786 304.825309,56.6592786 C304.043709,56.6592786 302.951409,54.7029786 302.949909,53.3003786 C302.946809,50.3391786 306.073309,46.6811786 309.825609,45.2561786 C311.919109,44.4610786 313.342409,44.4664786 314.928309,45.2755786 C316.501609,46.0781786 316.807409,46.4517786 317.328609,48.2080786 C318.154809,50.9913786 316.385909,57.6230786 314.020809,60.6091786 C312.183209,62.9294786 308.865509,65.7612786 306.966009,66.6308786 C305.433409,67.3324786 304.534209,67.4894786 301.614109,67.5650786 C299.683709,67.6149786 297.502909,67.4889786 296.767909,67.2850786 M329.587709,66.6563786 C327.270709,66.1038786 325.717809,65.0842786 324.974609,63.6272786 C324.184409,62.0783786 324.275409,60.8412786 325.361509,58.3664786 L326.005209,56.8997786 L324.802409,55.4318786 C323.820709,54.2338786 323.674309,53.8739786 324.006109,53.4740786 C324.643009,52.7067786 325.226309,52.8887786 326.193209,54.1563786 L327.087309,55.3286786 L328.724409,53.6655786 C330.736109,51.6218786 332.899509,50.1071786 334.728709,49.4617786 C338.286909,48.2063786 340.608809,51.0757786 338.660709,54.3205786 C336.134309,58.5287786 331.817309,60.2026786 328.305209,58.3357786 C327.891809,58.1159786 327.643709,58.3143786 327.219409,59.2039786 C325.896309,61.9785786 326.904209,63.9137786 330.308509,65.1348786 C331.550509,65.5803786 332.019009,65.9140786 331.944609,66.3003786 C331.817409,66.9608786 331.234109,67.0489786 329.587709,66.6563786 M334.410709,56.1197786 C335.969209,55.1390786 337.374109,53.3070786 337.460709,52.1427786 C337.636509,49.7771786 333.920709,50.9803786 330.613809,54.3599786 C329.515309,55.4825786 328.742209,56.5216786 328.895909,56.6689786 C329.775609,57.5122786 332.653109,57.2256786 334.410709,56.1197786 M338.460409,63.7812786 C337.971809,62.5081786 341.472909,57.4015786 343.812409,55.9750786 C345.106009,55.1862786 345.669109,55.1535786 345.936909,55.8515786 C346.073209,56.2067786 345.618109,56.8590786 344.549909,57.8398786 C343.101909,59.1692786 343.007109,59.3465786 343.487109,59.8265786 C344.171309,60.5107786 343.896009,61.1662786 342.583909,61.9772786 C342.001709,62.3369786 341.163609,63.0165786 340.721209,63.4873786 C339.799309,64.4688786 338.775209,64.6018786 338.460409,63.7812786 M435.265509,54.5132786 C434.151409,52.7105786 432.451709,51.4237786 430.395109,50.8258786 C428.011309,50.1328786 427.081109,49.2064786 426.393209,46.8402786 C426.093909,45.8106786 425.671709,44.9735786 425.455009,44.9801786 C424.825009,44.9994786 423.549209,46.2446786 420.580509,49.7382786 C417.552909,53.3011786 415.658209,54.8131786 413.779909,55.1655786 C412.728409,55.3627786 412.449009,55.2694786 411.713009,54.4753786 C410.687209,53.3684786 410.637509,52.2339786 411.494609,49.4877786 C412.195209,47.2432786 412.907409,46.5343786 413.680109,47.3125786 C414.113609,47.7489786 414.094409,48.0430786 413.519409,49.7809786 C412.724109,52.1843786 412.700209,52.9436786 413.411309,53.2165786 C414.423309,53.6048786 416.238009,52.2051786 420.242709,47.9473786 C423.350709,44.6429786 424.459809,43.6732786 425.266809,43.5548786 C426.565509,43.3642786 427.366109,44.1519786 427.857709,46.1040786 C428.302709,47.8712786 428.889409,48.4036786 431.408909,49.3264786 C432.511509,49.7302786 433.918609,50.5310786 434.535809,51.1059786 C436.006109,52.4754786 437.350209,54.5968786 437.122909,55.1892786 C436.812009,55.9994786 436.001809,55.7046786 435.265509,54.5132786 M391.675309,55.8001786 C391.041709,55.1665786 391.040109,54.8748786 391.661009,53.1512786 C391.925909,52.4162786 392.144809,51.5779786 392.147509,51.2884786 C392.154509,50.5532786 393.560509,49.3091786 394.384209,49.3091786 C395.551009,49.3091786 396.829909,50.5706786 396.829909,51.7216786 C396.829909,52.5430786 396.444709,53.1067786 394.908909,54.5321786 C392.831209,56.4604786 392.475209,56.6000786 391.675309,55.8001786" id="Signature" fill="#FFFFFF"></path>
    </g>
</svg>